<svg id="Layer_1" data-name="Layer 1" xmlns="http://www.w3.org/2000/svg" width="4443.36" height="4616.72" viewBox="0 0 4443.36 4616.72"><defs><style>.cls-1{fill:#f1ea19;}.cls-2{fill:#fecd0a;}.cls-3{fill:#65bc47;}.cls-4,.cls-8{fill:#2aab4a;}.cls-5{fill:#a0cc40;}.cls-6{fill:none;stroke:#000;stroke-miterlimit:10;stroke-width:88.22px;}.cls-7{fill:#fff;}.cls-8{font-size:1000px;font-family:CooperBlack, Cooper Black;}.cls-9{letter-spacing:0em;}.cls-10,.cls-11{fill:#fdcd0c;}.cls-10{letter-spacing:-0.06em;}</style></defs><title>sachvui1</title><path class="cls-1" d="M720.23,707.79,714.6,3116.14s1128.9-62.93,1737,532c585.56-560.61,1759.5-537.73,1759.5-537.73V707.79S4360.29,622,4481.34,622L4487,3319.22s-945.91-85.81-1655.34,323.21c-335,286-422.28,191.64-422.28,191.64-44,10.43-535.12-302.67-636.23-331.79C1652.57,3467.56,1175.43,3322,450,3319.22c-11.26-875.25-5.63-2703-5.63-2703S675.19,664.88,720.23,707.79Z" transform="translate(-248.4 -363.06)"/><path class="cls-2" d="M709.67,832.89l8.45,2293.94S1923,3121.1,2466.36,3661.7C2987.17,3172.59,3950,3124,4211.78,3132.55c8.45-303.19,2.82-2411.22,2.82-2411.22L4254,695.59l228,2414.07v223.11s-1162.67-82.95-1722.9,369c-177.36,163-284.34,157.32-284.34,157.32s36.6,74.36-394.12-188.78S447.86,3341.35,447.86,3341.35Z" transform="translate(-248.4 -363.06)"/><path class="cls-2" d="M2465.65,3880.22c-12.81,0-34.61-5.77-74.55-23.66-68.06-30.49-174.45-89.86-316.23-176.48-174.79-106.79-511.42-197.24-973.49-261.59-349.88-48.72-651.12-65.55-654.13-65.72l-11.84-.65L698.47,831.68l22.46,1.16,8.41,2282.6c58.27.56,334.86,6.37,661.1,64.83,215.07,38.54,409.41,92.08,577.65,159.14,206.57,82.34,374.2,185.45,498.49,306.57,120.2-110.94,271.85-206.79,451-285,152.95-66.81,326.67-121.2,516.35-161.67,304-64.85,599.93-82.78,766.94-78.51,7.92-337.56,2.57-2378.59,2.52-2399.41l0-6.27,60.14-39.28,1.76,18.68L4493.3,3109.12V3345l-12-.86c-2.91-.21-294.16-20.27-649.85,15-327.37,32.48-777.8,119.78-1065,351.27-148.71,136.62-249.2,156.83-281.31,159.63a16.63,16.63,0,0,1-3.51,4.71C2478.36,3877.87,2473.83,3880.22,2465.65,3880.22ZM460.3,3330.62c59.21,3.63,332.37,21.79,644,65.18,206.14,28.7,388.57,62.67,542.25,101,192.72,48,340.74,103.1,440,163.71,132.12,80.72,233.36,137.68,300.92,169.29,44.3,20.73,64.8,26.12,73.84,27.31l-5.16-10.47,19.32,1c1,0,105.45,2.57,276.18-154.37l.56-.48c128.93-104,300.31-188.23,509.39-250.33,166.81-49.54,357.93-85.23,568-106.06,316.6-31.37,582.47-19.14,641.2-15.78v-210.4L4244.57,715.36l-18.69,12.21c.32,127.55,5.29,2113.59-2.84,2405.3l-.32,11.48-11.3-.37c-36.26-1.18-366-9.1-772.91,77.71-418.16,89.21-742.67,240.08-964.51,448.41l-7.87,7.39-7.65-7.62c-278.54-277.13-736.46-406.92-1071.57-467-364-65.25-665.75-64.62-668.74-64.6l-11.27.05,0-11.45-7.68-2085Z" transform="translate(-248.4 -363.06)"/><path class="cls-3" d="M2479.06,3618.51s608.68-502.82,1702.55-508.7c17.64-1135,11.76-2690.57,11.76-2690.57S3396.5,248.69,2881.91,1048.51C2876,795.63,2787.81,778,2787.81,778s32.35,326.39-144.08,776.29c-108.8-829.22-264.65-811.58-264.65-811.58s58.81,479.3,23.53,599.86c-173.49-329.33-814.52-964.48-1634.92-923.32-11.77,2749.38,5.88,2690.57,5.88,2690.57S1893.9,3089.22,2479.06,3618.51Z" transform="translate(-248.4 -363.06)"/><path class="cls-4" d="M806.41,1462l6,16.12,457.49,1236.07S2199.65,2815,2470.24,3114.35c259.07-270.59,1211.89-423.15,1211.89-423.15l469.21-1263.7,5.76,1640.79c33-2-1197.32,31.06-1669.59,512.39-532.57-469.9-1708.08-502.59-1686.85-500.87Z" transform="translate(-248.4 -363.06)"/><path class="cls-4" d="M2487.66,3584.65l-2-1.81c-271.06-239.16-711.89-362.39-1034-423.65-340.8-64.83-617-75.58-648.13-76.49v.23l-5.19-.42-.76-2.08-.48-2,.69-.41,5.81-1631.85L1272,2711.56c22.12,2.5,246,28.58,497.29,87.66,154.75,36.39,289.46,78,400.38,123.65,137.35,56.54,238.49,119.53,300.68,187.27,59.64-61.24,159.7-121.35,297.49-178.72,111.38-46.37,247.58-91.08,404.81-132.9,255.9-68.06,485.68-106.33,507.41-109.89l474.15-1277L4160,3066.17l1.06.57-.47,2.12c-.48,2.14-2.52,2.26-3.29,2.31l-3,.18v-.16c-33.75,1.08-321.54,13-662.16,78.75-325.26,62.81-763.21,188.88-1002.5,432.76ZM803.55,3077.06c19.51,0,97.52,4.15,187.24,12.24,106.47,9.61,272.1,28.37,456.53,63.21,206.54,39,393.37,89.73,555.32,150.74,201.27,75.83,364.34,167.83,484.73,273.48,106.46-107.76,260-201.68,456.3-279.17,158-62.35,343.85-114.25,552.44-154.26,328.27-63,617.25-77.36,658.1-77.73l-5.69-1622.2L3684.24,2693.78l-1.65.26c-2.39.38-241.2,38.95-508.56,110.06-246.51,65.56-568.35,173-701.71,312.24l-2.14,2.24-2.08-2.3c-139.26-154.09-457.6-254.41-700.12-311.44-263.06-61.86-496.1-87.5-498.42-87.75l-1.77-.19-.62-1.67L809.24,1478Z" transform="translate(-248.4 -363.06)"/><path d="M3224.48,1564.57s41.16-432.25,264.64-414.61,235.24,176.43,258.77,414.61l126.44,11.76s8.82-523.41-349.92-546.93-408.73,429.31-402.85,541.05Z" transform="translate(-248.4 -363.06)"/><path d="M3877.21,1579.55l-132-12.28-1.44-14.61c-22.69-230.41-37.68-382.62-254.87-399.77-50-4-94.84,15-133.21,56.38-30.95,33.35-57.83,81.22-79.89,142.29-37.68,104.3-48.28,212.21-48.39,213.29l-.23,2.51-108.39,6.2-.16-3c-2.36-44.86,4.38-126.09,24.77-206.46,18.61-73.38,56.17-176,129.42-248.35,66.71-65.86,151.42-95.91,251.79-89.34,82.59,5.42,152.56,37.82,208,96.3,44.21,46.66,79.25,109.93,104.14,188,42.29,132.72,40.59,264.28,40.57,265.59Zm-126.64-17.68,120.83,11.24c0-20.82-2-140.28-40.35-260.66-38.63-121.14-123.22-268.08-306.83-280.12-98.62-6.47-181.81,23-247.28,87.65-125.19,123.6-156.68,352.49-152.58,447.37l97.45-5.57c1.84-16.91,13.71-116,48.42-212.13,22.33-61.83,49.62-110.4,81.11-144.35,39.66-42.77,86.12-62.35,138-58.27,102.84,8.12,168,47.07,205,122.57,34.32,70,44,168.46,55.25,282.48Z" transform="translate(-248.4 -363.06)"/><path d="M3875.77,1577.94l-129.23-12-1.32-13.41c-22.76-231.14-37.8-383.84-256.21-401.08-50.48-4-95.72,15.13-134.42,56.85-31.09,33.51-58.07,81.56-80.2,142.82-37.73,104.48-48.35,212.53-48.45,213.61l-.12,1.26-105.65,6-.08-1.47c-2.35-44.75,4.38-125.8,24.72-206,18.57-73.2,56-175.59,129-247.66,66.41-65.56,150.74-95.47,250.66-88.92,82.21,5.39,151.86,37.64,207,95.84,44.05,46.5,79,109.58,103.8,187.47,42.22,132.49,40.52,263.81,40.5,265.12Zm-126.54-14.72,123.64,11.5c.06-15.33-.81-138.49-40.39-262.65-38.77-121.61-123.7-269.11-308.17-281.2-99-6.5-182.62,23.13-248.4,88.07-126.21,124.59-157.46,355.79-153,450l100.19-5.73c1.31-12.42,12.82-114.3,48.47-213,22.26-61.65,49.45-110.05,80.81-143.85,39.34-42.42,85.39-61.85,136.82-57.81,220.87,17.44,236,171.12,258.91,403.73Z" transform="translate(-248.4 -363.06)"/><path d="M3878.66,1581.17l-134.8-12.55-1.56-15.82c-22.62-229.67-37.56-381.4-253.52-398.44-49.56-3.93-94,14.9-132,55.92-30.81,33.22-57.59,80.93-79.58,141.82-37.32,103.33-48.19,211.81-48.29,212.88l-.36,3.78-111.12,6.35-.23-4.43c-2.37-45,4.38-126.38,24.8-206.89,18.66-73.57,56.32-176.49,129.82-249,67-66.16,152.1-96.36,252.92-89.75,83,5.44,153.26,38,208.93,96.75,44.36,46.83,79.51,110.28,104.47,188.6,42.45,133.21,40.66,264.74,40.64,266.06Zm-126.74-20.65,118,11c-.14-24-2.81-141.06-40.26-258.53-38.48-120.73-122.74-267.17-305.55-279.16-98.17-6.45-181,22.91-246.14,87.23-123.87,122.28-155.85,350.16-152.22,444.76l94.73-5.41c2.19-19.55,14.35-117,48.36-211.23,22.39-62,49.79-110.76,81.41-144.85,40-43.1,86.8-62.85,139.21-58.74,223.32,17.63,238.55,172.28,261.6,406.37Z" transform="translate(-248.4 -363.06)"/><path d="M1736.58,1576.33s-41.16-432.25-264.64-414.61-235.24,176.43-258.77,414.61l-126.44,11.76s-8.82-523.41,349.92-546.93,408.73,429.31,402.85,541.05Z" transform="translate(-248.4 -363.06)"/><path d="M1083.79,1588.14c0-1.31-1.72-132.86,40.57-265.58,24.89-78.11,59.93-141.37,104.14-188,55.4-58.48,125.37-90.88,208-96.29,100.36-6.58,185.08,23.47,251.79,89.33,73.25,72.32,110.81,175,129.42,248.35,20.39,80.37,27.13,161.6,24.77,206.46l-.16,3-108.39-6.2-.24-2.51c-.1-1.08-10.7-109-48.38-213.29-22.07-61.07-48.94-108.94-79.89-142.29-38.37-41.36-83.17-60.35-133.21-56.38C1255,1181.8,1240,1334,1217.3,1564.42l-1.44,14.61-132,12.29Zm127.66-24.3c11.23-114,20.92-212.49,55.25-282.48,37-75.5,102.17-114.45,205-122.57,51.89-4.08,98.35,15.51,138,58.27,31.49,34,58.78,82.52,81.11,144.35,34.71,96.11,46.58,195.22,48.42,212.13l97.45,5.57c4.1-94.88-27.39-323.77-152.58-447.37-65.47-64.62-148.66-94.12-247.28-87.64-183.61,12-268.2,159-306.83,280.11-38.39,120.38-40.32,239.85-40.35,260.66l120.82-11.24Z" transform="translate(-248.4 -363.06)"/><path d="M1085.26,1588.12c0-1.31-1.72-132.63,40.5-265.12,24.83-77.89,59.75-141,103.8-187.47,55.14-58.2,124.79-90.45,207-95.84,99.92-6.55,184.25,23.37,250.66,88.92,73,72.07,110.46,174.46,129,247.66,20.34,80.22,27.07,161.28,24.72,206l-.08,1.48-105.65-6-.12-1.26c-.1-1.08-10.72-109.13-48.45-213.61-22.13-61.26-49.11-109.31-80.2-142.82-38.7-41.71-83.94-60.84-134.42-56.85-218.41,17.24-233.45,169.94-256.21,401.08l-1.32,13.41-129.23,12ZM1212.91,1564c22.91-232.61,38-386.29,258.91-403.72,51.43-4,97.48,15.38,136.82,57.8,31.36,33.8,58.54,82.2,80.81,143.85,35.65,98.72,47.16,200.6,48.47,213l100.19,5.72c4.5-94.17-26.75-325.37-153-450-65.78-64.94-149.35-94.57-248.4-88.07-184.47,12.09-269.4,159.59-308.17,281.2-39.58,124.16-40.45,247.32-40.39,262.65l123.64-11.5Z" transform="translate(-248.4 -363.06)"/><path d="M1082.32,1588.17c0-1.31-1.81-132.85,40.64-266.06,25-78.32,60.11-141.77,104.47-188.6,55.67-58.76,126-91.31,208.93-96.75,100.82-6.61,185.9,23.59,252.92,89.75,73.5,72.55,111.16,175.48,129.82,249,20.42,80.51,27.17,161.92,24.8,206.9l-.23,4.42-111.12-6.35-.36-3.78c-.1-1.07-11-109.55-48.29-212.88-22-60.89-48.77-108.6-79.58-141.82-38.06-41-82.48-59.84-132-55.92-216,17.05-230.9,168.77-253.52,398.44l-1.56,15.82-134.8,12.55ZM1210,1563.69c23-234.09,38.28-388.73,261.6-406.37,52.41-4.11,99.23,15.64,139.21,58.74,31.62,34.09,59,82.83,81.41,144.85,34,94.19,46.17,191.68,48.36,211.23l94.73,5.42c3.63-94.61-28.35-322.49-152.22-444.77-65.15-64.32-148-93.67-246.14-87.23-182.81,12-267.07,158.43-305.55,279.16-37.45,117.47-40.12,234.51-40.26,258.53l118-11Z" transform="translate(-248.4 -363.06)"/><ellipse class="cls-5" cx="3271.6" cy="1719.04" rx="170.55" ry="242.59"/><path class="cls-5" d="M3520,2326.16c-94.85,0-172-109.48-172-244.06S3425.15,1838,3520,1838s172,109.48,172,244.06S3614.85,2326.16,3520,2326.16Zm0-485.18c-93.23,0-169.08,108.16-169.08,241.12s75.85,241.12,169.08,241.12,169.08-108.17,169.08-241.12S3613.23,1841,3520,1841Z" transform="translate(-248.4 -363.06)"/><ellipse class="cls-5" cx="1172.08" cy="1716.1" rx="170.55" ry="242.59"/><path class="cls-5" d="M1420.48,2323.22c-94.85,0-172-109.48-172-244.06s77.17-244.06,172-244.06,172,109.48,172,244.06S1515.33,2323.22,1420.48,2323.22Zm0-485.18c-93.23,0-169.08,108.16-169.08,241.12s75.85,241.12,169.08,241.12,169.08-108.17,169.08-241.12S1513.71,1838,1420.48,1838Z" transform="translate(-248.4 -363.06)"/><path d="M1623.94,2429.55l-51.06,21s-73-120,35.79-184.69c117.62-64.69,162.42,22.52,162.42,22.52l-33,54.06s269.28,399.41,675.69,399.41,643.8-218.54,797.1-404.6c-37.42-48.68-31.94-68.45-31.94-68.45s75.39-55.31,156.78,10.57,24,168.18,24,168.18l-51.05-9S2957.3,2897.34,2488.82,2883,1883.26,2746.12,1623.94,2429.55Z" transform="translate(-248.4 -363.06)"/><path class="cls-6" d="M744.16,413.36,750,3124.51s1140.92-35.29,1729,494c638.09-455.78,1676.09-552.81,1676.09-552.81l38.22-2646.46s-829.22-152.9-1311.46,629.27c-20.58-267.58-94.1-270.52-94.1-270.52s26.47,397-144.08,776.29c-79.4-770.41-264.65-811.58-264.65-811.58s44.11,255.82,23.53,599.86C2017.4,654.48,1132.31,372.2,744.16,413.36Z" transform="translate(-248.4 -363.06)"/><path class="cls-6" d="M740.81,716.61c.41-.37-152.49-103.29-276-91.53l2.94,2737.61s1383,74.14,1816.24,435.51c298,211.4,450.46-36,450.46-36s529.72-481.81,1767.68-408.29c5.88-1243.84,0-2722.91,0-2722.91s-140.4-1.13-317.2,90.59" transform="translate(-248.4 -363.06)"/><path class="cls-7" d="M991.16,583.91s238.19,35.29,270.53,61.75,11.76,64.69-20.58,64.69c-32.35-17.64-244.06-52.93-261.71-50C941.18,645.66,958.82,586.85,991.16,583.91Z" transform="translate(-248.4 -363.06)"/><path class="cls-7" d="M1370.49,669.19s76.45,8.82,100,47c11.76,38.22-32.35,55.86-32.35,55.86s-62.54-18.53-95.11-33a18.54,18.54,0,0,1-10.92-17.56C1333.41,676.68,1356.94,669.19,1370.49,669.19Z" transform="translate(-248.4 -363.06)"/><text class="cls-8" transform="translate(0 4365.74)">Sá<tspan class="cls-9" x="1211.91" y="0">c</tspan><tspan x="1736.33" y="0">h </tspan><tspan class="cls-10" x="2665.04" y="0">V</tspan><tspan class="cls-11" x="3409.18" y="0">ui</tspan></text></svg>